<?xml version="1.0" encoding="utf-8"?>
<!-- Generator: Adobe Illustrator 25.3.0, SVG Export Plug-In . SVG Version: 6.00 Build 0)  -->
<svg version="1.1" id="katman_1" xmlns="http://www.w3.org/2000/svg" xmlns:xlink="http://www.w3.org/1999/xlink" x="0px" y="0px"
	 viewBox="0 0 1417.3 1417.3" style="enable-background:new 0 0 1417.3 1417.3;" xml:space="preserve">
<style type="text/css">
	.st0{clip-path:url(#SVGID_2_);fill:#FFFFFF;}
	.st1{fill:#E3002B;}
	.st2{fill:#142448;}
</style>
<g>
	<g>
		<defs>
			<rect id="SVGID_1_" x="161.2" y="98.1" width="2500" height="2500"/>
		</defs>
		<clipPath id="SVGID_2_">
			<use xlink:href="#SVGID_1_"  style="overflow:visible;"/>
		</clipPath>
		<path class="st0" d="M709,101.9c-302,0-547.8,245.7-547.8,547.8c0,210,116.9,397.9,305.1,491.1c-0.8,1.6-2.6,5.1-2.6,5.1
			c-8.7,17.1-26.9,52.6-32.5,55.2l-10.3,3.2c-5.1,1.2-10.3,2.5-14.9,6.1c-5,3.8-12.6,18.3-12.6,25.8l-0.4,2.5c-0.4,2.2-1,5.4-1,9.2
			c0,12.1,6,31.3,42.5,51.5c0.1,0.1,7.4,3.9,7.4,3.9c49.6,23.4,67,5,73.5-1.8l1.8-1.8c6-4.4,13.3-19,13.5-25.3c0-0.2,0-0.5,0-0.7
			c0-5.6-2-10.3-3.9-14.9l-3.4-10.3c0-0.1,0-0.3,0-0.5c0-7,19.1-43.6,28.4-61.5c0,0,4.1-7.9,5.3-10.3
			c49.2,14.2,100.2,21.5,151.9,21.5c302,0,547.7-245.7,547.7-547.8C1256.7,347.6,1011,101.9,709,101.9"/>
	</g>
	<path class="st1" d="M501.1,811.5c-1.1,1.3-0.9,3.3,0.5,4.4l7.7,6.3c1.3,1.1,3.3,0.9,4.4-0.5c1.1-1.3,0.9-3.3-0.5-4.4l-7.7-6.3
		C504.2,810,502.3,810.2,501.1,811.5"/>
	<path class="st1" d="M534.2,839.5c1.5,0.9,3.4,0.5,4.3-0.9c0.9-1.5,0.5-3.4-0.9-4.4l-7-4.5c-1.4-0.9-3.4-0.5-4.3,1
		c-0.9,1.4-0.5,3.4,1,4.3L534.2,839.5z M534.2,839.5"/>
	<path class="st1" d="M522,874.9c1.2-1.3,1.1-3.3-0.2-4.4l-14.7-13.3c-1.3-1.1-3.3-1-4.5,0.2c-1.1,1.3-1,3.3,0.3,4.5l14.7,13.2
		C518.8,876.3,520.8,876.2,522,874.9"/>
	<path class="st1" d="M929,843.9c-1.7,0.2-3,1.7-2.8,3.4c0.2,1.7,1.7,3,3.4,2.8l14-1.4c1.7-0.2,3-1.7,2.8-3.4
		c-0.2-1.7-1.7-3-3.5-2.8L929,843.9z M929,843.9"/>
	<path class="st2" d="M893.5,696.6c16.4-31.2-22.9-74.5-81-103.1c-58.1-28.5-113.8-34.3-131.6-0.3c-9.6,18.3,11.1,43.7,46.5,67.2
		c1.3-3.8,2.6-7.4,3.8-11c0.9-2.7,1.4-5.5,2.6-8c0.6-1.8,1.3-3.9,1.9-5.7c0.4-1.4,2.5-4.8,4.3-7.4c7.1-10.6,31.1-12.9,53.4-2.3
		c22.3,10.5,38.3,35.3,32,51.5c0,0.1,0,0.1,0,0.2c-1.2,3-3.5,7-4.3,8.1c-3.6,4.8-7.4,9.9-11.3,15.3
		C850.4,714.8,883.8,715.2,893.5,696.6"/>
	<path class="st2" d="M795.2,722.6h-0.5c-1.7,2.5-3.4,5-5.2,7.5c0.1,0.1,0.1,0.2,0.2,0.2c21,7.3,59.6,33.9,72.4,47.4
		c0.4,0.4,0.9,1,1.3,1.3c0.1,0.1,0.3,0.1,0.4,0.2c3.2-2,6.5-3.9,9.8-5.6c2-1,3.9-2,5.9-2.9l-0.4-0.4
		C870.7,762.5,817.5,731.7,795.2,722.6"/>
	<path class="st2" d="M714.5,695.9c1.2-3.3,2.5-6.5,3.7-9.7c-21.1-11.1-58.1-23.7-77.2-31.1c-2.8-1.1-5.8-2.5-9-4.2
		c-5.1-2.7-10.5-6.1-15.9-10.2c-21.9-16.4-43.5-43.6-39.3-77.1c3.7-29.7,27.4-44.4,60.6-48.5c5.3-0.6,10.8-1,16.6-1.1
		c52.7-1.2,122.5,18.8,177,46.2c42.3,21.1,98.8,62.2,126.6,89.1c6.8,6.6,12.3,12.2,16.9,17.3c3.9,4.3,7.2,8.4,9.9,12.3
		c8.8,12.8,11.5,24.4,12.7,44c0.1,19.9-5.4,37.8-12.2,51.9c-0.1,0.2-0.1,0.4-0.2,0.6c6-3.6,12.2-6.8,18.4-9.4
		c0.1-0.2,0.1-0.4,0.1-0.4c0.4-1.8,0.6-5.4,0.6-5.4c8.8-41.4,0.7-77.9-12-104.5c-3.2-6.6-6.6-12.4-10.1-17.7
		c-4.9-7.2-9.9-13.3-14.7-17.8c-21.8-20.4-11.4-5.2-4.2,4.2c5.2,6.6,7.6,10.6,9.8,14.7c3.8,7.3,5.6,11.6,5.9,13.8
		c-0.1,0.5-0.3,1.1-0.4,1.6c-1.6,0.6-6.7-3.9-14.6-11.9c-29.7-30.3-81.3-68.7-128.8-92.5c-58.4-29.2-128.4-44.5-173.9-46.3
		c-5-0.2-9.8-0.3-14.2-0.2c7.6-3.5,13.7-5.6,19.6-7.1c8.3-2.1,16.3-2.9,27.1-4c16.5-1.7,10-4.9,0-4.2c-6,0.5-13.4,0.9-21.4,1.6
		c-6.1,0.5-12.6,1.2-19.3,2.2c-36,5.2-77,18.7-85.7,61.8c-8.7,43.5,19.2,81.6,52.5,102.5c5.4,3.4,11,6.3,16.7,8.8
		c1.4,0.6,2.8,1.3,4.2,1.8c35.4,13.8,72.7,30.2,73.6,30.6h0.1L714.5,695.9z M714.5,695.9"/>
	<path class="st2" d="M740.1,456.7l3.6-11.1l7.1,9.8l11.9,0.5l-7.5,9.1l3.4,11.7l-11.5-4.4l-9.7,7.2l0.4-12.2l-9.3-7L740.1,456.7z
		 M807.9,455.6l9.1-15.2l7.2,16.9l17.4,4.7l-14.1,10.9l1.1,18.4l-15.5-10.3l-16.7,7.4l4.6-17.9l-11.5-13.3L807.9,455.6z
		 M879.7,475.9l18.8,10.9l18.9-8.6l-4.3,21.1l13.6,16.2l-20.9,1.1l-11.2,18.5l-8.1-20.3l-21.1-4l16.4-14.2L879.7,475.9z
		 M947.3,562.4l4-11.8l7.5,10.7l12.5,0.1l-7.7,10.4l3.3,12.3l-11.7-4.7l-10.8,7.3l0.8-13.2l-10.5-7.6L947.3,562.4z M856.1,525.3
		c25.2,12.5,58,37,94.2,78.1l32.3-18.5l6.1-3.5c-10.5-65.6-47.1-110.6-97.7-137.9c-68.7-37.1-145.5-18.2-177.3,3.8l0.6,7.2l2.2,30.1
		C772.4,487.6,831,512.8,856.1,525.3"/>
	<path class="st2" d="M1059.2,902.6V880h8.3v-4.9h-22.2v4.9h8.3v22.6H1059.2z M1059.2,902.6"/>
	<path class="st2" d="M1105.1,902.6v-27.5h-9.6l-6.7,18h-0.2l-6.4-18h-9.8v27.5h5.6v-21.9h0.1l7.7,21.9h5.4l8-21.9h0.2v21.9H1105.1z
		 M1105.1,902.6"/>
	<path class="st1" d="M736.1,812.6l-0.6-0.1c4.4-6.9,8.7-13.8,13.1-20.6c1.3-2.1,2.6-4.1,3.9-6.1l0.7-0.2c3.5-1.4,7.6-2.6,11.8-3.5
		c10.4-2.1,21.2-2.1,23.6,3.3c0.1,0.2,0.1,0.5,0.2,0.7c1.5,4.3-0.9,8.8-5.8,13C773.3,807.5,753.8,814,736.1,812.6 M551.6,1106.5
		c-0.7-0.3-1.5-0.5-2.3-0.8C588.8,1034.3,668.7,894,733,786.3c2.4-4,4.7-7.9,7.1-11.8c10.6-17.6,20.7-34.2,30-49.3
		c19.9-30.9,42.8-67.8,44.8-71.1c1.2,1,3.5,4.7,3.3,7.8c-0.2,2.8-41.1,63.7-43.7,67.6c-9.5,14.4-19.5,30.1-29.9,46.7
		c-2.4,3.9-4.9,7.8-7.3,11.7C670.9,894.8,592.6,1033,551.6,1106.5 M672.1,867.2c3.8-7.3,25.4-44.3,50.1-85.9c2.3-3.8,4.6-7.8,7-11.7
		c30.9-51.8,64.3-107.3,73.1-120.6c0.8-4.1-4.1-6.8-4.1-6.8c-6.3,11-37.3,63.8-73.4,125.3c-2.3,3.9-4.5,7.8-6.9,11.7
		C661.5,875.7,595.8,988,592.1,995c8-14.6,60.9-121.4,80.5-159.2c6.4-12.5,17.5-37.3,29.7-65.5c1.8-4.1,3.6-8.4,5.4-12.6
		c25.2-59.2,52.9-127.8,53.9-132.4c18.5-0.6,38.9,7.8,49.8,22.7c0.2-0.4-4.1,6.8-4.1,6.8c-3.5,5.4-53.3,85.6-72.6,117.5
		c-3.4,5.6-5.9,9.7-7,11.7c-0.1,0.1-0.2,0.4-0.3,0.5c-6.4,11.3-166.7,284.6-166.7,284.6C600.3,992.1,663.4,884.3,672.1,867.2
		 M696.9,766.8c1.9-4.4,3.7-8.6,5.5-12.8c27.5-65,41.6-110.2,43.7-118.1l4-0.9c-12.3,37.3-29.5,80.2-46.6,119.8
		c-1.9,4.2-3.7,8.5-5.6,12.7c-24.4,55.4-47.5,101.7-54.8,111.6C664.5,838.5,682.4,800.4,696.9,766.8 M539.2,1099.5
		c0,0.1-0.4,0.9-1,1.9c-0.1-0.1-0.3-0.1-0.5-0.2c0.6-1.1,1.1-2.2,1.4-2.9C542.4,1092.8,539.6,1098.3,539.2,1099.5 M524,1156.5
		l-0.5,0.9v0.6c-0.3-0.2-0.1,0.5-0.4,0.2c0.1,0.4,0,0.8-0.2,1c-0.5,0.4-0.5,0.7-0.7,1.3c0,0,0.2,0.2,0.1,0.3
		c-0.4,0.3-0.3,0.9-0.6,1.3c-0.5,0.6-1.8,1-2.2,1.7c0.9-1.9,1.9-3.7,2.9-5.1c0.8-1,0.1-0.3,0.6-1.3c0.3-0.7,2.2-6,2.5-6.8
		c0.8-1.7,2.5-5.3,5.2-10.3c0.6,0.2,1.3,0.4,1.9,0.6C528.2,1148.8,525.2,1154.2,524,1156.5 M518.5,1169.2c-0.1,0.1-1.4,0.2-1.4,0.5
		c-0.1,0.4,0.1,0.9-0.1,1.1c-1.1,1.6-1,3.1-1.6,4.9c-0.1,0.2-0.6,0.3-0.6,0.4c0.1,1.7-1.9,2.9-2.3,4.4c-0.7,2.8-1.9,5-3,7.7
		c-0.1,0.2-0.6,0.3-0.6,0.5c-0.2,1.1-1.3,1.5-1.7,2.5c-0.1,0.2,0,0.6-0.1,0.7c-0.7,0.5-0.9,1.2-1.5,1.7c-0.2,0.2,0,0.7-0.1,1.1
		c-0.2,0.7-0.9,1.3-1,2c-0.6,3.3-1.7,6.5-3,9.4c-0.3,0.7-0.9,1.7-0.6,2.7c-0.9,0,0.3,1.3-0.8,1.2c0,0.8,0.2,1.7-0.1,2.4
		c-0.8,2.2-1.1,4.3-1.5,6.5c-0.1,0.4-0.6,0.8-0.6,1.2c0.1,1.7-1.8,3.1-1.8,4.9c0,1.5-0.9,2.4-1.5,4c-0.4,0.9-1.1,1.7-1.7,2.6
		c-0.9,1.3-2.5,2.6-3.2,4c-0.2,0.4,0.8,1.3,0.3,1.5c-0.3,0.1-0.6,0.2-0.8,0.5c-0.5,1.1,0.6,2.7-0.8,3.2c-0.9,3-4.1,5.6-5,8.6
		c-0.3,1,1,2.2,0.6,3.1c-1,2.2-1.1,3.8-1.9,6.1c-0.1,0.3-0.4,0.6-0.7,0.4c-0.3-0.2-0.4-0.7-0.5-1.1c-0.1-0.3-0.9-0.3-0.8-1.2
		c0.4-3,2.2-4.3,2.9-7.1c1-3.8,1.6-7.1,2.3-10.7c0.2-1,0.6-1.8,0.7-2.9c0-0.3-0.2-0.5-0.2-0.8c0.2-1.2,1.2-2,0.9-3.2
		c1.7-2.1,1.2-5.1,3-7.4c0.3-0.3,1.2-1.1,1.4-1.5c1.3-2.5,1-5,2.5-7.4c0.2-0.2,0.3-0.2,0.5-0.5c0.3-0.6,1.7-1.6,1.9-2.3
		c0.1-0.5-0.6-1.1-0.2-1.7c0.1-0.2,0-0.5,0.1-0.8c0.4-1.1,1.4-2,1.7-3.2c0.5-1.4,0.9-2.9,2-4c0.2-0.2,0.6-0.6,0.6-0.9
		c0.1-0.4-0.3-0.8,0.9-1.2c-0.1-1.6,1.4-2.5,1.8-4c0.2-0.7,1-1.4,1.3-2.1c0.3-0.9,0.7-1.8,0.9-2.8c0.1-0.3,0.4-0.5,0.7-0.4
		c0-0.4-0.1-0.8,0.1-1.2c1.2-2.4,3.2-4.2,4-6.9c0.1-0.2,0.6-0.2,0.7-0.5c0.2-0.3-0.1-0.9,0.1-1.1c1.5-1.8,1.8-3.8,3.1-5.7
		c0.2-0.3,0-0.8,0.1-1.2c0.4-1,1-1.9,1.5-2.9c0.2-0.3-0.1-0.9,0.1-1.2c0.5-0.7,0.9-1.4,1.4-2.1c0.9-1.4,1.8-3.2,2.7-5.1
		C518.8,1165.6,519.5,1167.8,518.5,1169.2 M473.5,1236c-1.2,3.3-2,5.7-2.3,6.9c-1.6,5.4-3.5,13.5-5.1,20.6c-0.9,4.4-3.3,5.3-5.7,4.4
		c-1.5-0.6-3.1-1.6-4.4-2.7c-0.7-0.6-1.8-0.8-2.9-1.4c-0.4-0.2-0.7,0.4-1.1,0.2c-0.6-0.4-1.2-1.7-1.9-2c-1-0.4-2.4-1.3-3.5-1.8
		c-0.9-0.4-1.7-1.6-2.5-2c-0.6-0.3-1.2,0.3-1.8,0c-1.6-0.8-2.7-2-4-2.7c-0.8-0.5-2.3-1.3-2.7-1.7c-1-0.9-0.9-1.6-0.5-2.2
		c0.6-0.8,2.4-1.3,3.2-1.4c0.9-0.2,4,1,7.5,2.6c2.8,1.3,5.8,3.2,8.1,3.8c2,0.6,4.3,0.1,5.4-1c0.8-0.8,0.4-1.8,0.4-2.9
		c0.1-1.4,1.3-2.9,0.6-3.8c-0.9-1.3-1.8-1.6-2.7-2.2c-1.1-0.7-2.2-1.4-3.4-1.8c-2-0.8-2.8-4-0.4-4.4c0,0,2.2-0.8,3.5-2.1
		c0.8-0.7,0.5-1.6,1.4-2.6c0.4-0.4,1.5-0.9,1.8-1.4c0.3-0.4-0.3-0.7,0-1.2c0.4-0.4,0.2-0.9,0.9-1.6c0.5-0.6,1.9-1.2,2.5-2
		c0.5-0.6,1.1-1.3,1.6-2c11-14.2,29.3-46.1,44.9-74.9c-7.2,13.5-13.7,25.9-16.6,32.2c-6.1,13.2-15.7,36.1-20.4,49
		C473.2,1234.7,473.7,1235.4,473.5,1236 M445.5,1232.9c5.8-1.5,16.8-15.5,17.4-16.7c0.6-1.2,2.2-2.5,1.4,0.2
		c-1.2,6.1-5.4,12-8.9,15.8c-2.1,2.3-3.4,3.9-5,4.3c-4.1,1-5.7-0.5-6.1-1.7C444.3,1232.7,444.6,1233.1,445.5,1232.9 M380.9,1002.3
		c0,0,0.1-0.1,0.2-0.1c0.2,0.2,0.2,0.4,0.4,0.6C381.2,1002.7,381,1002.5,380.9,1002.3 M376,997.8c-1.3-1.3-2.6-2.5-3.9-3.7
		c2.5,1,4.6,1.8,5.1,2c0.1,0.1,0.2,0.3,0.3,0.5C377,997,376.5,997.5,376,997.8 M225.9,653.1c-3.8-54.2,11.9-88.9,24.7-112.5
		c13.2-24.2,41.2-56.2,66-51.3c38.5,7.6,13.7,57.8-19,114.8c-31.9,55.7-70.6,114.2-39.5,147.9c25.2,27.2,76.8,21.1,108.4-10.3
		L289,887.2C249.2,818.1,225.9,738.3,225.9,653.1 M412.8,845.8c-14.3-15.8,41.3-70.6,54.3-54.1C477,807.5,428.8,863.4,412.8,845.8
		 M882.9,784.2c6-4.8,12.2-8,17-8.5c3.4-0.4,6.1,0.6,7.3,3.5c3.9,8.9-19.5,28.4-42.9,31.4C866.6,800.9,874.5,791,882.9,784.2
		 M1030.1,772.8c6.9,9.6-17,30.8-43.7,31.9C988.3,788.1,1021.5,760.8,1030.1,772.8 M1072.1,822.8c0.9,1,19.3,0.2,19.5-17.6
		c5.7-4,11.9-8.7,17.3-14c0.2,1.6,0.3,3.1,0.7,4.6c3.5,12.9,3.9,47.5-22.4,46.2C1071.3,841.2,1068.9,826.2,1072.1,822.8
		 M1026.2,299.9c2.7-3.2,5.4-6.3,7.8-9.1c6.6,6,13.1,12.1,19.4,18.5C1046.6,307,1033,302.3,1026.2,299.9 M752.3,864.1
		c10.4,7.9,41.5-1.8,70.8-27.9l2.7-2.2c0.4,2.3,1,4.6,2.1,6.8c12.9,28.2,73.5,17.9,119.5-15.2c0.3,3.3,1.3,6.7,3,10
		c12.6,24.4,64,17.6,105.5-7.3c0.9,3.1,2.2,6.2,4.2,9.5c4.8,7.9,16.6,14.9,27.1,16.6c16.4,2.8,36.2,0.7,47.7-15
		c3-4.1,4.8-8.4,6.1-12.9c16.4-14,56.3-57.6,81.6-109.7c7.2-15,9.3-53.8,9.1-67.3l-0.3-0.9c0-288.2-233.7-522-522-522
		c-256.8,0-470.3,185.5-513.9,429.8l50.6-53.7c23.1-71.9,62.6-136.5,114-189.5c1.5,1.2,3,2.5,4.5,3.7l-12,36.8c-0.5,1.7,0.4,3.4,2,4
		c1.7,0.5,3.4-0.4,4-2c0,0,8.4-25.8,11.2-34.3c4.8,4.2,9.4,8.5,13.9,12.8l-15,35.4c-0.7,1.6,0.1,3.4,1.7,4.1
		c1.6,0.7,3.4-0.1,4.1-1.7l14-33.2c4.4,4.3,8.7,8.7,12.9,13.2l-14.6,35.8c-0.6,1.6,0.2,3.4,1.7,4.1c1.6,0.7,3.5-0.1,4.1-1.7
		l13.5-33.1c2.2,2.3,4.3,4.7,6.4,7.1c0,0.1,0,0.1,0,0.2c0.2,1.1,1.1,1.9,2.1,2.2c0.3,0.3,0.6,0.6,0.8,1L396.8,403
		c-0.8,1.5-0.2,3.4,1.3,4.3c1.5,0.8,3.4,0.2,4.2-1.3l17.5-33.1c2.8,3.3,5.6,6.7,8.3,10.1c0.5,0.6,0.9,1.2,1.3,1.8
		c0.9,1,1.6,2.1,2.4,3.2l-21.6,32.3c-1,1.4-0.6,3.4,0.9,4.4c1.5,0.9,3.4,0.6,4.4-0.8l20.3-30.5c4.7,6.4,9.3,12.9,13.6,19.4
		c-0.1,0.1-0.3,0.1-0.4,0.2L423.8,440c-1.2,1.3-1.1,3.3,0.2,4.4c1.3,1.2,3.3,1.1,4.5-0.2l24.4-26.5c5.4,8.5,10.7,17.1,15.5,25.9
		l-27.8,29.1c-1.2,1.3-1.2,3.3,0.1,4.5c1.3,1.2,3.2,1.1,4.5-0.1c0,0,19.7-20.6,26.3-27.5c4.3,8,8.3,16.1,12,24.3l-29.5,28.8
		c-1.2,1.2-1.3,3.2,0,4.5c1.2,1.2,3.2,1.3,4.4,0c0,0,21.2-20.7,27.9-27.2c4.5,10.2,8.7,20.5,12.4,31.1l-31.5,31.5
		c-1.2,1.2-1.2,3.2,0,4.4c1.2,1.2,3.3,1.2,4.5,0l29.2-29.2c3.4,10.1,6.4,20.4,9.1,30.9l-12,12c-1.2,1.2-1.2,3.2,0,4.4
		c1.2,1.3,3.2,1.3,4.4,0l9.4-9.4c2.8,11.6,5.1,23.3,7,35.1l-31.3,31.4c-1.2,1.2-1.2,3.2,0,4.4c1.3,1.3,3.3,1.3,4.5,0l28-27.9
		c2.1,15,3.6,30.1,4.1,45.5l-36.3,28.8c-1.4,1.1-1.6,3-0.5,4.4c1,1.4,3,1.6,4.4,0.5c0,0,24-19,32.6-25.8c0.1,3.6,0.3,7.2,0.3,10.8
		c0,10.3-0.4,20.2-1,30L488.6,716c-1.4,1-1.8,2.9-0.9,4.3c0.9,1.5,2.9,1.8,4.3,0.9c0,0,21.9-14.6,30.7-20.5
		c-1.1,13-2.7,25.9-5.1,38.8l-39,15.9c-1.6,0.6-2.3,2.5-1.7,4.1c0.7,1.6,2.5,2.4,4.1,1.7c0,0,24.6-10,35.3-14.4
		c-1.6,7.9-3.3,15.8-5.3,24c-0.1,0.2,0.1,0.4,0.1,0.6c0,0.4,0,0.7,0.2,1.1c0.1,0.4,0.3,0.7,0.6,1.1c0.1,0.1,0.1,0.3,0.2,0.5
		l21.6,18.1c1.4,1.1,3.3,0.9,4.5-0.4c1.1-1.3,0.9-3.3-0.4-4.4l-20.2-16.9c2-8.3,3.9-16.5,5.4-24.6c8.4,3.5,40.1,16.8,40.1,16.8
		c1.6,0.7,3.4-0.1,4.1-1.7c0.6-1.6-0.1-3.4-1.7-4.1L524,739.5c2.4-13.4,4-26.6,5.1-40c9.6,3.9,38.9,15.7,38.9,15.7
		c1.6,0.7,3.4-0.1,4.1-1.7c0.6-1.6-0.1-3.4-1.7-4.1L529.8,693c0.6-9.9,1-19.9,1-30.3c0-3.9-0.2-7.8-0.3-11.7
		c10.5,4.4,41,17.4,41,17.4c1.6,0.7,3.4-0.1,4.1-1.7c0.7-1.6-0.1-3.4-1.7-4.1l-43.7-18.5c-0.6-15-1.9-29.9-4-44.7l37.7,13.2
		c1.7,0.6,3.4-0.3,4-1.9c0.6-1.6-0.3-3.4-1.9-4l-40.7-14.3c0-0.1,0-0.1,0-0.2c0.2-0.7,0.1-1.5-0.3-2.2c-1.9-11.7-4.1-23.3-6.9-34.7
		l40.5,10.6c1.7,0.4,3.4-0.6,3.8-2.3c0.4-1.7-0.6-3.4-2.3-3.8l-43.9-11.5c-2.8-10.8-5.9-21.6-9.4-32.2c11.9,1,44.6,3.7,44.6,3.7
		c1.7,0.2,3.2-1.1,3.4-2.9c0.1-1.7-1.2-3.3-2.9-3.4l-47.2-3.9c-3.7-10.6-8-21.1-12.5-31.4c11.3,0.7,41,2.5,41,2.5
		c1.8,0.1,3.2-1.2,3.3-2.9c0.1-1.8-1.2-3.2-2.9-3.3l-44.3-2.6c-3.8-8.4-7.8-16.6-12.1-24.7c11.2-0.3,43.8-1.3,43.8-1.3
		c1.7,0,3.1-1.4,3.1-3.1c0-0.1,0-0.1-0.1-0.1c0-1.8-1.5-3.1-3.2-3l-46.8,1.3c-4.9-8.9-10.1-17.5-15.6-26.1l44.6-3.9
		c1.7-0.2,3-1.7,2.8-3.4c-0.1-1.7-1.7-3-3.4-2.9l-48.1,4.2c-5.6-8.4-11.4-16.6-17.5-24.6l38.4-5.5c1.7-0.2,2.9-1.8,2.6-3.6
		c-0.2-1.7-1.8-2.9-3.5-2.7l-41.8,6c-3.4-4.3-6.9-8.4-10.4-12.6l38.5-6c1.7-0.3,2.9-1.9,2.6-3.6c-0.3-1.7-1.9-2.9-3.6-2.6l-42.2,6.6
		c-3.5-3.9-7-7.8-10.6-11.7l30.6-9.8c1.7-0.5,2.6-2.3,2-3.9c-0.5-1.6-2.3-2.6-3.9-2l-33.5,10.7c-2.4-2.5-4.7-5-7.2-7.4l30.2-11.3
		c1.6-0.6,2.4-2.4,1.8-4c-0.6-1.7-2.4-2.5-4.1-1.8l-33,12.4c-5-4.8-10-9.5-15.2-14.1c9.6-3.5,32.3-11.9,32.3-11.9
		c1.3-0.5,2-1.7,2-2.9c0-0.4-0.1-0.7-0.2-1.1c-0.6-1.6-2.4-2.5-4-1.8l-35.6,13.2c-1.5-1.3-3-2.6-4.6-3.9
		c87.9-88.4,209.6-143.1,344.2-143.1c122.8,0,235,45.7,320.5,120.9c-2.7,3-5.6,6.4-8.5,9.9c-4.3-6.2-17.7-25.2-17.7-25.2
		c-1-1.4-3-1.7-4.4-0.8c-1.4,1-1.8,3-0.7,4.4l18.6,26.6c-3.7,4.5-7.3,9-10.6,13.2c-5.4-5.6-24.1-24.3-24.1-24.3
		c-1.3-1.2-3.3-1.2-4.5,0c-1.2,1.3-1.2,3.2,0,4.5l24.8,24.8c-2.4,3-4.6,5.9-6.4,8.2c-41-28.2-90-45-142.4-45
		c-54.4,0-104.8,17.2-146.1,46.4c-0.6,0.4,4.5,82.3,6.3,110.1c7.5-4.1,15.3-7.5,23.3-10.6l-1.9-100.1c10.1-8.1,23.9-14.7,34.6-18.5
		l-2.3,109.5c12.4-2.5,25.2-3.9,38.3-3.9c4.1,0,8,0.4,11.9,0.6l20-120.6c25.8-2.4,51.7,0.4,74.4,7.7L865,425.4
		c21.6,7.1,41.4,17.8,58.9,31.5l83.1-105.7c18,15.7,32.3,30.8,46.3,52.8L956.3,489c10.2,12.8,18.8,26.9,25.4,42.1l99.9-69.2
		c2,3.9,7.8,27.9,6.8,35l-97,62.6c1.7,6.4,3,12.9,4,19.5c24.2-13.7,112.6-63.9,112.6-64.7c-7.6-74.3-48.5-140.5-107.2-182.9
		c1.7-2.2,4-5.1,6.4-8.2c7.9,3.8,26.8,12.8,26.8,12.8c1.5,0.7,3.4,0.1,4.2-1.5c0.2-0.5,0.3-0.9,0.3-1.4c0-1.2-0.7-2.3-1.8-2.8
		c0,0-17.6-8.4-25.5-12.1c3.3-4.2,6.9-8.7,10.6-13.2l33.5,11.6c1.4,0.5,2.8-0.2,3.6-1.5c83.9,87.3,135.5,205.7,135.5,336.4l0.3,0.4
		c-3.1,89.9-20.6,128.8-52.5,152.4c-1.4-9-4.4-17-6.8-21.8c-4.9-10-2.7-10.6,0.7-13.8c18-15.5,21.7-31.3,15-36
		c-9.7-6.9-37.2,15.2-40.7,36.4c-0.5,3.2-1,6.5-1.4,9.9c-5.9,7-13.6,13.4-20.9,18.5c-10.2-9.4-32,1.2-33.4,20.4
		c-20,11.1-36.1,17.2-51,17.3c-18.1,0.2-22.9-10.6-19.5-20.4c0-0.1,0-0.1,0-0.1c0,0,0.2,0.2,1.2,0.1c35.5-2.8,77.3-23.2,70.5-47
		c-4-14-28.2-12.2-52.8-1.9c-6.2,2.6-12.5,5.8-18.4,9.4c-16.2,9.8-30.1,22.7-35.3,36.5c-24.9,21.2-50.7,28.4-68.3,28.5
		c-18.1,0.2-22.9-10.6-19.6-20.4c0.2-0.4-0.4,0,1.2-0.1c38.7-0.3,85.7-23,75.7-48.3c-2.5-6.5-8.5-9.8-16.4-10.7
		c-10.2-1.2-23.6,1.7-37.2,7.4c-1.8,0.7-3.6,1.5-5.4,2.4c-2,0.9-4,1.9-5.9,2.9c-3.3,1.7-6.6,3.6-9.8,5.6c-8.4,5.3-16.3,11.4-22.6,18
		c-5.6,5.9-10,12.1-12.8,18.5c-12.6,16.7-35.2,32.8-43.2,31.8c-18.2-2.4-0.6-22.2-18.4-25.4c13.7-2.2,30.8-10.4,41.3-21.5
		c4-4.3,7.1-9,8.6-14c1.3-4.3,1.4-8.7,0-13.3c-5-17.3-35.2-12.2-53.6-2.7l-0.8,0.4c9.3-14.2,18.5-27.9,27.2-40.7
		c1.8-2.5,3.5-5.1,5.2-7.5c5.1-7.4,10.1-14.5,14.9-21.1c0-0.1,0.1-0.2,0.2-0.3c3.9-5.4,7.6-10.5,11.2-15.3c0.9-1.1,3.2-5.1,4.4-8.1
		c0-0.1,0-0.1,0-0.2c6.2-16.3-9.7-41-32-51.6c-22.3-10.5-46.2-8.3-53.4,2.3c-1.8,2.6-3.9,6-4.4,7.4c-0.6,1.8-1.3,3.8-1.9,5.7
		c-0.8,2.6-1.7,5.3-2.6,8c-1.3,3.9-2.4,7.6-3.8,11.6c-2.8,8.1-5.9,16.5-9.1,25c-1.2,3.2-2.4,6.4-3.7,9.7l-0.5,1.6l-0.1,0
		c-6.3,16.3-13.1,33.1-20.3,50c-1.8,4.3-3.6,8.5-5.5,12.8c-11.1,25.6-22.7,51.1-33.9,75.1c-5.2,3.5-14.8,9.4-18.7,6.9
		c-9.6-6.1,33.8-49.7,19.6-64.5c-11.7-12.2-47.9,5.1-65.1,23c2-5.3,2.5-14.9-5-22.3c-24.2-23.8-95.4,85.3-107.7,76.4
		c-7.1-5.1,20.6-37.7,34-73.6l-29.5,0.2l-4.3,6.9c0.2-1.8-0.7-4.1-3.3-6.4c-32.5-29.9-113.2,56.5-83.5,82.2
		c13.9,12,46.8-2.4,60.3-20.3c-9.1,19.4-2.3,27.2,0.3,29c30.2,22.1,94.6-81.9,105.6-72.4c7.7,6.8-32,65-30.2,66.4l29.8-0.3
		c12.7-22.5,22-40.3,22-40.3c16.8-19.3,37.3-34.7,42.3-28.8c8.3,9.8-35.4,45.1-21.1,67.3c6.9,10.7,33.7-2.4,46.7-12.3
		c-26.2,55.4-49.1,100.3-56.3,114.8c-13.4,27.4-40.2,77.8-67.4,127.8c-45.7-19.7-88.3-46.5-126.3-78.9c0-0.6,0.1-1.3-0.3-1.8
		L385.8,998c0.1-0.1,0.2-0.2,0.3-0.3c4.9-4.5,9.3-9.3,14-14c6,6.8,16,18.1,16,18.1c1.2,1.3,3.1,1.4,4.5,0.3c1.3-1.2,1.4-3.2,0.2-4.5
		l-16.2-18.4c3.9-4,7.7-8,11.4-12.1c6.8,7.2,18.3,19.4,18.3,19.4c1.2,1.3,3.2,1.3,4.5,0.1c1.3-1.2,1.3-3.2,0.1-4.4L420,962.4
		c5.6-6.4,11.3-12.9,16.5-19.6c6.3,8.9,17,23.9,17,23.9c1,1.4,3,1.8,4.4,0.7c1.4-1,1.7-2.9,0.7-4.4l-18.3-25.7
		c5.2-6.9,10.2-13.8,15-21c5.8,7.3,20.6,26.1,20.6,26.1c1.1,1.4,3.1,1.6,4.4,0.6c1.4-1.1,1.6-3,0.5-4.4l-21.9-27.8
		c4.7-7.3,9.1-14.9,13.3-22.5l23.6,21.7c1.3,1.2,3.3,1.1,4.5-0.2c1.2-1.3,1.1-3.2-0.2-4.4l-24.5-22.6c0.1-0.3,0.3-0.6,0.5-0.8
		c0.8-1.5,0.3-3.4-1.3-4.3c-1.5-0.8-3.4-0.2-4.3,1.3c-0.4,0.7-0.9,1.4-1.2,2.1c-0.1,0-0.1,0-0.1,0.1c-0.1,0.1,0,0.3-0.1,0.4
		c-0.4,0.7-0.8,1.4-1.2,2.1l-29.5-2.7c-1.7-0.2-3.3,1.1-3.4,2.8c-0.1,1.7,1.1,3.3,2.9,3.4l26.6,2.5c-3.4,5.9-6.8,11.9-10.4,17.6
		l-34.3-4c-1.7-0.2-3.3,1-3.5,2.8c-0.1,0.1-0.1,0.2-0.1,0.4c0,1.5,1.2,2.9,2.8,3.1c0,0,22.7,2.6,31.2,3.7
		c-4.3,6.5-8.8,12.7-13.4,18.9l-0.2-0.3c-0.5-0.7-1.3-1.2-2.2-1.3l-33.6-3.5c-1.7-0.2-3.3,1.1-3.4,2.8c0,0.1,0,0.2,0,0.3
		c0,1.6,1.2,2.9,2.8,3.1c0,0,29.5,3.1,32.1,3.3c0.1,0.1,0.4,0.6,0.6,0.9c-5.4,7-11.2,13.8-16.9,20.5l-0.6-0.7
		c-0.4-0.4-0.8-0.7-1.4-0.8l-32.1-9.8c-1.7-0.5-3.4,0.4-3.9,2.1c-0.1,0.3-0.2,0.6-0.2,0.9c0,1.4,0.9,2.6,2.2,3
		c0,0,29.8,9.1,31.3,9.5l0.5,0.5c-3.6,4.1-7.5,8.1-11.3,12l-0.6-0.6c-0.4-0.4-0.9-0.7-1.4-0.9l-28.6-8.4c-1.7-0.5-3.4,0.5-3.9,2.1
		c-0.1,0.3-0.1,0.6-0.1,0.9c0,1.3,0.9,2.6,2.3,3c0,0,26.1,7.6,27.7,8.1c0,0,0.2,0.2,0.2,0.2c-4.5,4.5-8.8,9.1-13.5,13.4l-0.4-0.7
		c-0.4-0.6-0.9-1-1.5-1.3l-18.1-7c-0.2-0.1-0.3,0-0.5,0c-17.8-18.5-34.3-38.2-49.2-59.3l187.8-354.5l-43.5,1.2L380,714.1
		c-24.8,23.2-65,44.5-88.1,28.6c-45.6-31.5,133.2-202.3,67.4-257.9c-52.6-44.3-109.7,21.9-127.8,53.3
		c-14.7,25.6-42.4,64.8-43.4,113.1c0.5,214.4,130.2,398.4,315.4,478.3c-17.5,31.7-34,60.9-45.8,80.8c-8.3,14.1-13.7,20.5-23.6,19.7
		c-1.9-0.2-6,0.4-7.3,0.9c-4.9,1.9-6.9,10.6-6.7,14.3c0.4,7.6,6.6,21.4,31.3,32.7c24.7,11.3,38.4,10.3,44.8,6.1
		c3.1-2,8.9-8.7,7.6-13.8c-0.3-1.3-2.3-5-3.6-6.4c-6.4-7.6-4.9-14.3,1.6-29.3c9.2-21.4,25.2-54,43.2-89.1
		c51.9,17.3,107.4,26.8,165.1,26.8c245.8,0,451.9-169.9,507.4-398.6c2.1-8.4,4.3-18.6,4.3-18.6c-14.7,23-53.4,57.3-53.4,57.3
		c-20.6,59.3-52.3,112.7-92.8,158.2l7.3-14.5c0.8-1.6,0.1-3.5-1.4-4.2c-1.5-0.8-3.4-0.2-4.2,1.4c0,0-8.2,16.5-9.3,18.6
		c-4.5-2.9-9.4-6.5-14.4-10.7c5.9-7.1,16.4-19.8,16.4-19.8c1.1-1.3,0.9-3.3-0.4-4.4c-1.4-1.1-3.4-0.9-4.5,0.4c0,0-10.7,13-16.3,19.8
		c-2.4-2.1-4.8-4.2-7.2-6.5l20-27.6c1-1.4,0.7-3.3-0.7-4.4c-1.4-1-3.4-0.7-4.4,0.7l-19.5,26.9c-3.9-3.8-7.9-7.7-11.8-11.9
		c5.9-7.1,18.2-22.4,18.2-22.4c1.1-1.4,0.9-3.3-0.5-4.4c-1.3-1.1-3.3-0.9-4.4,0.5c0,0-12.1,15.1-17.6,21.8
		c-4.3-4.6-8.6-9.3-12.8-14.1l18.4-21.9c1.2-1.3,1-3.3-0.4-4.4c-1.3-1.2-3.3-1-4.4,0.4c0,0-11.5,13.7-17.8,21.1
		c-5.1-6-10-11.9-14.7-17.6l19.2-21.7c1.1-1.3,1-3.3-0.3-4.4c-1.3-1.1-3.3-1-4.4,0.3l-18.4,20.8c-5.9-7.5-11.3-14.6-15.8-21l8.1-8.1
		c1.2-1.3,1.2-3.2,0-4.5c-1.2-1.2-3.2-1.2-4.5,0c0,0-4.2,4.2-7.3,7.4c-3.7-5.4-6.7-10-8.7-13.6c-0.8-1.5-2.7-2.1-4.3-1.2
		c-1.5,0.8-2.1,2.7-1.2,4.2c2,3.7,5.1,8.6,8.9,14.1c-6.8,1.2-27.7,5-27.7,5c-1.5,0.3-2.6,1.6-2.6,3.1c0,0.2,0,0.4,0,0.6
		c0.3,1.7,2,2.9,3.7,2.5l30.6-5.6c5,7,11.1,15,17.7,23.3l-36.3,1.2c-1.7,0.1-3.1,1.5-3,3.3c0.1,1.7,1.5,3.1,3.2,3l41.1-1.4
		c4.1,5,8.3,10,12.7,15.1c-2.2,0.6-32.5,9.5-32.5,9.5c-1.3,0.4-2.2,1.6-2.2,3c0,0.3,0,0.6,0.1,0.9c0.5,1.7,2.2,2.6,3.9,2.1l33.5-9.8
		c0.6-0.2,1-0.5,1.3-0.9c4,4.5,8.1,9,12.2,13.4c-7.4,3.1-33.9,15.1-33.9,15.1c-1.5,0.7-2.2,2.6-1.5,4.1c0.7,1.6,2.6,2.3,4.1,1.6
		l35.7-16.2c3,3.2,6,6.2,9,9.2h-0.2L999,965.7c-1.5,0.9-2,2.8-1.1,4.3c0.9,1.5,2.8,2,4.3,1.1l30.7-18.2c0.6-0.3,0.8-0.8,1-1.3
		c0,1,0.3,1.9,1.1,2.6c0.7,0.5,1.6,0.7,2.4,0.6c2.5,2.3,4.9,4.5,7.4,6.6c-4.5,2.8-27.7,18.4-27.7,18.4c-1.4,1-1.9,2.9-0.9,4.4
		c1,1.4,2.9,1.8,4.4,0.9l29.1-19.4c4.5,3.8,8.9,7.1,13,9.9c-7.6,5.2-20.6,14.1-20.6,14.1c-0.9,0.6-1.3,1.6-1.3,2.6
		c0,0.6,0.1,1.2,0.6,1.8c1,1.4,2.9,1.8,4.4,0.8l19.5-13.3c-88.7,93.5-215.1,150.7-355.6,152c-50.3,0.4-99.6-7.7-146.4-23
		c25.5-49,51.8-97.5,66.6-123.3c19.5-34.1,58.3-99,98.7-163.2l0.4-0.1c6.7-0.5,10.7,0.1,13.1,2.1
		C750.8,833.4,734.8,850.7,752.3,864.1"/>
</g>
</svg>
